HIERARCHY
ROOT Hips
{
	OFFSET 0.000000 0.000000 0.000000 
	CHANNELS 6 Xposition Yposition Zposition Yrotation Zrotation Xrotation 
	JOINT Lumbar
	{
		OFFSET 0.000000 0.000000 0.000000 
		CHANNELS 3 Zrotation Xrotation Yrotation
		JOINT Neck
		{
			OFFSET 0.000000 0.445665 0.000000 
			CHANNELS 3 Zrotation Xrotation Yrotation
			End Site
			{
				OFFSET 0.000000 0.227535 0.000000 
			}
		}
		JOINT RightShoulder
		{
			OFFSET 0.019635 0.377685 0.194865 
			CHANNELS 3 Zrotation Xrotation Yrotation
			JOINT RightElbow
			{
				OFFSET 0.000000 -0.243375 0.000000 
				CHANNELS 2 Zrotation Yrotation
				JOINT RightWrist
				{
					OFFSET 0.000000 -0.264825 0.000000 
					CHANNELS 2 Zrotation Xrotation
					End Site
					{
						OFFSET 0.006600 -0.176220 0.000990 
					}
				}
			}
		}
		JOINT LeftShoulder
		{
			OFFSET 0.019635 0.377685 -0.194865 
			CHANNELS 3 Zrotation Xrotation Yrotation
			JOINT LeftElbow
			{
				OFFSET 0.000000 -0.243375 0.000000 
				CHANNELS 2 Zrotation Yrotation
				JOINT LeftWrist
				{
					OFFSET 0.000000 -0.264825 0.000000 
					CHANNELS 2 Zrotation Xrotation
					End Site
					{
						OFFSET 0.006600 -0.176220 -0.000990 
					}
				}
			}
		}
	}
	JOINT RightHip
	{
		OFFSET 0.052140 -0.069960 0.075570 
		CHANNELS 3 Zrotation Xrotation Yrotation
		JOINT RightKnee
		{
			OFFSET 0.000000 -0.402270 0.000000 
			CHANNELS 1 Zrotation
			JOINT RightAnkle
			{
				OFFSET 0.000000 -0.404085 0.000000 
				CHANNELS 3 Zrotation Xrotation Yrotation
				End Site
				{
					OFFSET 0.204105 -0.089430 0.008415 
				}
			}
		}
	}
	JOINT LeftHip
	{
		OFFSET 0.052140 -0.069960 -0.075570 
		CHANNELS 3 Zrotation Xrotation Yrotation
		JOINT LeftKnee
		{
			OFFSET 0.000000 -0.402270 0.000000 
			CHANNELS 1 Zrotation
			JOINT LeftAnkle
			{
				OFFSET 0.000000 -0.404085 0.000000 
				CHANNELS 3 Zrotation Xrotation Yrotation
				End Site
				{
					OFFSET 0.204105 -0.089430 -0.008415 
				}
			}
		}
	}
}
MOTION
Frames: 14
Frame Time: 0.02
0.67756 0.11438 -0.42143 -8.28575 -71.46598 -25.2261 -2.767 3.06231 2.29925 20.37462 -20.65614 -2.11915 91.09456 4.37868 35.26149 10.40399 67.97777 -3.88692 -0.23105 81.06012 -0.20408 -35.69238 18.71427 -82.71008 -0.9602 4.12859 95.79393 -13.58258 -5.94443 -33.77372 -6.62323 -1.62462 -3.0367 113.5825 8.29341 15.90737 -49.9743 -7.15197 0.61888 2.57835
0.67758 0.11451 -0.42007 -7.5752 -70.65188 -24.52456 -2.33193 2.82848 2.34663 20.39427 -20.46874 -2.11917 89.46277 3.67295 36.04092 11.74157 69.06696 -3.58117 -0.35335 79.44605 0.06035 -35.87782 19.67441 -82.76113 -0.7412 4.31868 94.77987 -13.44954 -6.28111 -33.58588 -6.63248 -1.59451 -3.02285 112.69804 8.14357 15.10127 -49.84847 -7.1161 0.68193 2.60663
0.67767 0.11457 -0.41878 -6.93305 -69.78724 -23.87252 -1.91651 2.59366 2.42091 20.36911 -20.28529 -2.11919 87.79925 2.90737 37.04871 13.24927 70.6299 -3.28433 -0.4877 77.83795 0.36273 -36.12571 20.66712 -82.7215 -0.57033 4.49153 93.69676 -13.3727 -6.8168 -33.38939 -6.64421 -1.543 -2.99874 111.76938 7.97922 14.23177 -49.75649 -7.07514 0.75312 2.63855
0.67775 0.11468 -0.41747 -6.26092 -68.94277 -23.20106 -1.48922 2.36211 2.48134 20.36215 -20.09719 -2.11922 86.1434 2.16604 37.92997 14.69194 71.95638 -2.97591 -0.61443 76.22598 0.65474 -36.34962 21.64861 -82.71999 -0.36607 4.67595 92.63978 -13.26046 -7.22989 -33.19391 -6.65427 -1.5048 -2.98093 110.85236 7.83055 13.41248 -49.64703 -7.03735 0.8185 2.66787
0.67774 0.11473 -0.41611 -5.58088 -68.10868 -22.51279 -1.07548 2.11831 2.54968 20.36384 -19.92015 -2.11924 84.51438 1.43482 38.89462 16.09013 73.37458 -2.69667 -0.74709 74.6173 0.91744 -36.55739 22.6155 -82.72728 -0.20538 4.84627 91.60521 -13.18842 -7.77117 -33.01344 -6.6663 -1.45217 -2.95652 109.96835 7.64638 12.51056 -49.54737 -6.99619 0.89221 2.70095
0.67794 0.11488 -0.41487 -4.93521 -67.24149 -21.87315 -0.63699 1.89974 2.60758 20.33727 -19.72088 -2.11926 82.82218 0.66881 39.74566 17.61853 74.71233 -2.36138 -0.87053 73.00475 1.25051 -36.81511 23.62037 -82.69622 0.03113 5.04057 90.50691 -13.04639 -8.09444 -32.79799 -6.67504 -1.42434 -2.94334 109.00576 7.53057 11.76057 -49.43462 -6.96064 0.95099 2.72729
0.6787 0.11531 -0.41392 -4.36272 -66.29537 -21.35113 -0.13459 1.75339 2.62935 20.24079 -19.46559 -2.11928 80.96836 -0.17329 40.21481 19.46449 75.72435 -1.84906 -0.97696 71.36856 1.76655 -37.16548 24.72224 -82.5829 0.50828 5.31331 89.25591 -12.69946 -7.7825 -32.49564 -6.67292 -1.46901 -2.96295 107.84056 7.62074 11.47404 -49.28162 -6.94302 0.963 2.73257
0.67967 0.11584 -0.41309 -3.82377 -65.3178 -20.87779 0.39513 1.63216 2.63962 20.1178 -19.18676 -2.11929 79.05159 -1.04878 40.56563 21.43425 76.63649 -1.28378 -1.07225 69.73063 2.35267 -37.56875 25.86138 -82.4344 1.0594 5.6091 87.94184 -12.28023 -7.24348 -32.15659 -6.66767 -1.5394 -2.99424 106.59728 7.77786 11.33762 -49.11326 -6.93101 0.96028 2.7312
0.68057 0.11634 -0.41222 -3.27315 -64.35483 -20.38553 0.91851 1.49787 2.65555 20.00909 -18.91486 -2.1193 77.16037 -1.9123 40.98037 23.34701 77.58626 -0.75611 -1.16563 68.10089 2.90783 -37.96681 26.98302 -82.30179 1.56328 5.88904 86.65275 -11.89264 -6.79851 -31.82916 -6.66463 -1.59882 -3.02067 105.38818 7.89458 11.11175 -48.94932 -6.91558 0.96682 2.73398
0.68137 0.1168 -0.4113 -2.70982 -63.38905 -19.88098 1.41576 1.37017 2.67083 19.89017 -18.65925 -2.11931 75.28014 -2.76512 41.36023 25.27057 78.58577 -0.17193 -1.2884 66.43947 3.45979 -38.28795 28.10713 -82.16669 2.12262 6.19132 85.37754 -11.5111 -6.39562 -31.52315 -6.65824 -1.65487 -3.04505 104.18411 8.05113 10.96906 -48.79804 -6.90348 0.96328 2.73233
0.68242 0.11737 -0.41051 -2.17998 -62.42196 -19.41348 1.97392 1.23512 2.68408 19.78579 -18.36374 -2.11932 73.36346 -3.64648 41.78147 27.19677 79.45126 0.30771 -1.34763 64.84434 4.03552 -38.78068 29.23582 -82.02919 2.5852 6.45247 84.05837 -11.10033 -5.85279 -31.16353 -6.65817 -1.72386 -3.07638 102.95017 8.14308 10.69504 -48.61549 -6.88606 0.97652 2.73802
0.68407 0.11823 -0.41004 -1.7347 -61.46197 -19.032 2.69529 1.07045 2.69684 19.73694 -17.96695 -2.11933 71.35315 -4.60534 42.34614 29.11615 79.97263 0.48154 -1.23058 63.42643 4.65123 -39.73638 30.35665 -81.89797 2.75748 6.59695 82.64177 -10.61564 -4.94414 -30.66846 -6.67546 -1.82628 -3.12593 101.665 8.02102 9.97497 -48.3571 -6.85076 1.04503 2.76792
0.68597 0.11922 -0.40969 -1.32152 -60.50123 -18.68675 3.47638 0.8982 2.70739 19.70221 -17.53033 -2.11934 69.30999 -5.58995 42.95457 31.03008 80.35963 0.54924 -1.05088 62.07668 5.28974 -40.86178 31.4827 -81.76518 2.83089 6.69887 81.18175 -10.10594 -3.90916 -30.12034 -6.69937 -1.94011 -3.18172 100.35015 7.83541 9.12674 -48.06633 -6.81029 1.1299 2.80496
0.68778 0.12016 -0.4093 -0.89314 -59.53938 -18.32742 4.22966 0.73145 2.71729 19.65535 -17.1097 -2.11935 67.2876 -6.55828 43.54275 32.9349 80.80509 0.66822 -0.90177 60.69946 5.92329 -41.90836 32.61374 -81.63082 2.95318 6.81865 79.73655 -9.61434 -2.9526 -29.59384 -6.72084 -2.04634 -3.23353 99.04148 7.69146 8.36789 -47.78579 -6.77342 1.20378 2.83718
